<?xml version="1.0" standalone="no"?>
<!DOCTYPE svg PUBLIC "-//W3C//DTD SVG 20010904//EN"
 "http://www.w3.org/TR/2001/REC-SVG-20010904/DTD/svg10.dtd">
<svg version="1.0" xmlns="http://www.w3.org/2000/svg"
 width="1497.000000pt" height="899.000000pt" viewBox="0 0 1497.000000 899.000000"
 preserveAspectRatio="xMidYMid meet">

<g transform="translate(0.000000,899.000000) scale(0.100000,-0.100000)"
fill="#000000" stroke="none">
<path d="M4445 6188 c-2 -7 -38 -152 -79 -323 -42 -170 -162 -656 -267 -1080
-214 -867 -259 -1052 -259 -1065 0 -6 154 -10 405 -10 223 0 405 2 405 4 0 2
11 62 25 132 14 70 25 129 25 131 0 2 145 3 323 3 l323 0 18 -97 c10 -54 22
-115 27 -135 l9 -37 403 6 c221 3 403 6 404 7 1 1 -11 51 -27 111 -15 61 -81
313 -144 560 -64 248 -132 511 -151 585 -19 74 -94 362 -165 640 -72 278 -135
522 -141 543 l-10 37 -560 0 c-439 0 -560 -3 -564 -12z m675 -1158 c55 -267
103 -493 106 -502 5 -17 -9 -18 -205 -18 -116 0 -211 2 -211 5 0 2 45 228 100
502 55 274 100 500 100 502 0 31 25 -81 110 -489z"/>
<path d="M1223 6183 l-473 -3 0 -608 c0 -334 3 -894 7 -1244 l6 -638 221 0
c122 0 299 3 395 7 l174 6 -6 600 c-3 330 -2 596 2 591 8 -8 61 -110 454 -876
83 -164 155 -298 159 -298 4 0 53 91 109 203 56 111 105 207 109 212 4 6 89
172 190 370 101 198 189 369 197 380 11 16 13 -21 13 -251 0 -149 3 -420 7
-603 l6 -332 388 3 c213 2 389 5 391 8 2 3 2 562 0 1243 l-4 1237 -490 0 -489
0 -23 -52 c-405 -922 -409 -931 -422 -906 -10 19 -144 327 -386 886 -22 49
-36 71 -47 70 -9 -2 -229 -4 -488 -5z"/>
<path d="M13039 6170 c-876 -4 -1028 -7 -1043 -19 -17 -14 -17 -82 -11 -1235
5 -716 11 -1228 17 -1239 9 -17 60 -18 1063 -15 836 2 1057 6 1067 16 10 10
12 225 10 1065 -2 1079 -8 1393 -24 1413 -5 7 -19 13 -31 15 -12 2 -484 2
-1048 -1z m1015 -82 c3 -7 7 -538 10 -1180 l5 -1168 -642 0 c-353 0 -800 -3
-993 -7 -227 -4 -353 -3 -357 4 -3 5 -9 537 -13 1181 l-7 1172 794 3 c437 1
885 3 997 5 155 1 204 -1 206 -10z"/>
<path d="M12515 5918 c-131 -47 -213 -191 -186 -326 28 -140 130 -226 266
-226 107 0 186 48 240 146 27 47 30 63 30 138 0 76 -3 91 -30 139 -31 56 -88
106 -148 128 -40 14 -132 15 -172 1z"/>
<path d="M12529 5186 c-246 -66 -276 -422 -44 -532 130 -62 287 -2 362 138 27
51 25 200 -4 253 -33 62 -103 121 -164 139 -62 19 -88 19 -150 2z"/>
<path d="M13387 5156 c-127 -47 -213 -184 -193 -309 44 -275 386 -337 514 -93
23 44 27 63 27 136 0 64 -5 94 -19 120 -26 49 -84 108 -131 132 -50 26 -147
33 -198 14z"/>
<path d="M12512 4461 c-195 -67 -250 -339 -98 -479 135 -125 339 -82 433 91
27 49 25 198 -4 252 -32 62 -103 121 -164 139 -67 20 -101 20 -167 -3z"/>
<path d="M10187 6153 l-637 -3 6 -1228 c3 -675 8 -1233 10 -1240 3 -11 145
-12 811 -7 862 8 913 11 1016 58 110 50 172 128 209 263 22 79 22 83 19 889
-1 456 -7 838 -12 875 -19 131 -73 241 -141 293 -104 80 -229 107 -473 104
-93 -1 -457 -3 -808 -4z m645 -681 l23 -23 0 -534 c0 -499 -1 -535 -18 -552
-15 -16 -47 -19 -259 -26 -132 -4 -244 -5 -247 -1 -3 3 -7 267 -9 585 l-4 580
246 -3 c240 -3 246 -3 268 -26z"/>
<path d="M7180 6074 c-36 -8 -96 -25 -135 -38 -38 -14 -86 -27 -106 -30 -91
-15 -369 -267 -369 -334 0 -6 -25 -63 -55 -126 -30 -62 -55 -121 -55 -130 0
-10 -5 -26 -11 -37 -5 -11 -17 -63 -25 -116 -11 -78 -14 -260 -14 -974 0 -482
-3 -884 -6 -893 -8 -21 -43 -20 -129 4 -38 11 -83 23 -100 26 -16 3 -52 11
-80 19 -71 20 -247 62 -333 80 -110 23 -182 19 -311 -16 -137 -36 -226 -75
-300 -131 -87 -66 -99 -78 -164 -163 -200 -264 -244 -631 -109 -905 75 -152
190 -269 373 -379 307 -185 474 -357 639 -661 79 -144 112 -199 169 -275 274
-368 673 -602 1117 -654 118 -14 954 -14 1082 0 251 27 477 92 694 199 96 47
93 46 218 126 278 179 520 449 673 749 94 184 124 263 173 460 38 150 46 240
51 570 5 349 -1 417 -48 552 -90 264 -328 503 -586 591 -154 52 -241 60 -702
61 -263 1 -389 5 -398 12 -11 9 -13 155 -13 783 0 451 -4 800 -10 841 -13 92
-50 203 -98 295 -22 41 -45 91 -51 111 -27 83 -281 300 -370 315 -20 3 -66 17
-103 29 -150 53 -365 70 -508 39z m370 -540 c132 -63 232 -199 251 -340 4 -38
8 -473 9 -966 0 -1013 -5 -942 80 -1025 75 -74 63 -73 700 -73 628 0 630 0
747 -66 75 -42 136 -108 177 -194 l31 -65 0 -340 c0 -349 -4 -389 -47 -535
-104 -344 -326 -647 -609 -832 -84 -55 -179 -108 -193 -108 -6 0 -16 -4 -22
-10 -25 -25 -215 -82 -364 -110 -95 -18 -151 -20 -590 -20 -436 0 -494 2 -576
19 -249 51 -480 194 -635 390 -33 42 -63 81 -68 87 -12 15 -101 172 -101 179
0 17 -155 254 -216 330 -171 212 -327 347 -577 499 -140 86 -186 131 -217 213
-24 64 -25 94 -6 165 45 165 100 236 214 273 70 23 137 17 317 -31 77 -20 156
-40 175 -44 19 -4 53 -12 75 -18 35 -10 116 -31 245 -62 58 -15 60 -22 60
-255 0 -244 8 -283 72 -347 54 -54 110 -78 183 -78 107 0 191 55 237 155 l23
50 5 1425 5 1425 22 54 c51 125 150 228 258 271 41 16 70 19 160 17 100 -2
116 -5 175 -33z"/>
</g>
</svg>
